<svg xmlns="http://www.w3.org/2000/svg" viewBox="0 0 720 240">
  <rect width="720" height="240" rx="40" fill="#f3ecd8"/>
  <ellipse cx="360" cy="144" rx="120" ry="78" fill="#8b6a4d"/>
  <circle cx="170" cy="104" r="56" fill="#8b6a4d"/>
  <circle cx="149" cy="100" r="20" fill="#fff8ef"/>
  <circle cx="189" cy="100" r="20" fill="#fff8ef"/>
  <circle cx="149" cy="100" r="8" fill="#1f211d"/>
  <circle cx="189" cy="100" r="8" fill="#1f211d"/>
  <polygon points="170,116 158,132 182,132" fill="#e0a53c"/>
  <path d="M280 136c-40 20-58 48-62 74 44-12 74-34 92-68" fill="#6f543e"/>
  <path d="M434 136c40 20 58 48 62 74-44-12-74-34-92-68" fill="#6f543e"/>
  <rect x="326" y="70" width="18" height="142" rx="9" fill="#d0b48b"/>
  <rect x="368" y="70" width="18" height="142" rx="9" fill="#d0b48b"/>
  <ellipse cx="342" cy="216" rx="18" ry="8" fill="#c98a2e"/>
  <ellipse cx="384" cy="216" rx="18" ry="8" fill="#c98a2e"/>
</svg>
