<svg xmlns="http://www.w3.org/2000/svg" viewBox="0 0 720 240">
  <rect width="720" height="240" rx="40" fill="#f7ead2"/>
  <ellipse cx="356" cy="150" rx="150" ry="66" fill="#de7a3c"/>
  <polygon points="100,124 148,70 198,124" fill="#de7a3c"/>
  <circle cx="164" cy="118" r="50" fill="#de7a3c"/>
  <polygon points="122,94 134,60 156,92" fill="#de7a3c"/>
  <polygon points="173,92 194,60 202,96" fill="#de7a3c"/>
  <polygon points="124,91 135,72 148,92" fill="#fff5ea"/>
  <polygon points="174,92 188,74 194,95" fill="#fff5ea"/>
  <ellipse cx="167" cy="130" rx="26" ry="18" fill="#fff5ea"/>
  <circle cx="151" cy="113" r="5" fill="#25211e"/>
  <circle cx="181" cy="113" r="5" fill="#25211e"/>
  <path d="M478 118c56-66 132-18 132 24 0 41-54 61-118 40" fill="#de7a3c"/>
  <path d="M536 126c38-34 82-14 82 16 0 28-35 43-78 30" fill="#fff5ea"/>
  <ellipse cx="310" cy="212" rx="22" ry="12" fill="#9b4b26"/>
  <ellipse cx="420" cy="212" rx="22" ry="12" fill="#9b4b26"/>
  <ellipse cx="486" cy="210" rx="22" ry="12" fill="#9b4b26"/>
</svg>
